#!OML:ASF H:\Martial Arts Walks\Project 1\Capture day 1\Session 1\male.ASF
:FULLY-SPECIFIED
:DEGREES
1501
root -2.44588 14.0526 -5.17369 12.0092 -50.2778 -13.8068
lowerback 16.4505 5.09455 1.78633
upperback -3.32191 7.41605 1.66276
thorax -12.9423 3.39587 -1.17819
lowerneck -2.45373 8.3109 0.258077
upperneck 4.68035 10.9395 3.09518
head 1.7046 5.52662 1.15058
rclavicle -4.11236e-014 -1.11319e-014
rhumerus -57.2958 45.3614 -111.335
rradius 113.189
rwrist -79.2719
rhand 9.47057 -25.5219
rfingers 7.12502
rthumb 34.624 -52.1649
lclavicle -4.11236e-014 -1.11319e-014
lhumerus 7.5254 11.2264 81.1365
lradius 88.2269
lwrist -28.1921
lhand -36.8368 46.1775
lfingers 7.12502
lthumb -9.9172 -284.076
rfemur -24.8995 -21.4657 17.5113
rtibia 76.0767
rfoot -34.0635 -22.9952
rtoes -21.8117
lfemur -57.4039 34.0297 -4.14808
ltibia 72.9628
lfoot -6.32399 0.451374
ltoes -11.2072
1502
root -2.44318 14.0491 -5.18716 11.8614 -50.2968 -13.6244
lowerback 16.4988 5.08963 1.69089
upperback -3.30276 7.38801 1.64817
thorax -12.9595 3.38861 -1.13803
lowerneck -2.44928 8.31217 0.249366
upperneck 4.64454 10.9428 3.08471
head 1.6923 5.52768 1.14722
rclavicle 4.72114e-014 2.98177e-014
rhumerus -57.3465 45.354 -111.4
rradius 113.167
rwrist -79.2997
rhand 9.45219 -25.4654
rfingers 7.12502
rthumb 34.6066 -52.1124
lclavicle 4.72114e-014 2.98177e-014
lhumerus 7.62445 11.2306 81.1072
lradius 88.1109
lwrist -28.1451
lhand -36.8183 46.195
lfingers 7.12502
lthumb -9.89937 -284.058
rfemur -25.0648 -21.397 17.4804
rtibia 76.2978
rfoot -34.0367 -23.0969
rtoes -21.5775
lfemur -57.4128 33.8656 -4.22315
ltibia 72.9115
lfoot -6.16195 0.590365
ltoes -11.5236
1503
root -2.44024 14.0456 -5.20253 11.7077 -50.3139 -13.4386
lowerback 16.55 5.08802 1.59561
upperback -3.28167 7.36427 1.63317
thorax -12.976 3.38333 -1.09966
lowerneck -2.45033 8.31108 0.23258
upperneck 4.61901 10.9428 3.08111
head 1.68351 5.52715 1.14781
rclavicle 9.29567e-014 -1.19271e-015
rhumerus -57.3993 45.3358 -111.471
rradius 113.137
rwrist -79.3441
rhand 9.41049 -25.4097
rfingers 7.12502
rthumb 34.567 -52.0658
lclavicle 9.29567e-014 -1.19271e-015
lhumerus 7.73686 11.2185 81.0801
lradius 87.9629
lwrist -28.1005
lhand -36.7943 46.2345
lfingers 7.12502
lthumb -9.87622 -284.017
rfemur -25.2502 -21.3185 17.4616
rtibia 76.5462
rfoot -33.9671 -23.2299
rtoes -21.3318
lfemur -57.417 33.6948 -4.29362
ltibia 72.8461
lfoot -5.99086 0.721471
ltoes -11.8195
1504
root -2.43703 14.0421 -5.21999 11.5505 -50.3326 -13.2527
lowerback 16.6038 5.0907 1.50097
upperback -3.25849 7.34631 1.61842
thorax -12.9916 3.3807 -1.06303
lowerneck -2.45883 8.30776 0.207831
upperneck 4.60312 10.9396 3.08314
head 1.67843 5.52516 1.15206
rclavicle 1.81888e-014 2.10712e-014
rhumerus -57.4501 45.3087 -111.543
rradius 113.101
rwrist -79.4044
rhand 9.34636 -25.3606
rfingers 7.12502
rthumb 34.5061 -52.0306
lclavicle 1.81888e-014 2.10712e-014
lhumerus 7.85997 11.1935 81.0551
lradius 87.7875
lwrist -28.0721
lhand -36.769 46.2936
lfingers 7.12502
lthumb -9.85176 -283.957
rfemur -25.4622 -21.2232 17.4572
rtibia 76.8311
rfoot -33.8391 -23.3977
rtoes -21.088
lfemur -57.4143 33.5204 -4.35543
ltibia 72.7666
lfoot -5.80994 0.843344
ltoes -12.0958
1505
root -2.43352 14.0384 -5.23975 11.3901 -50.3553 -13.0663
lowerback 16.6604 5.09808 1.40572
upperback -3.23313 7.33439 1.60402
thorax -13.0063 3.38095 -1.02743
lowerneck -2.47411 8.30256 0.176467
upperneck 4.59279 10.9339 3.08824
head 1.67584 5.52193 1.15881
rclavicle 1.513e-013 1.51076e-014
rhumerus -57.4945 45.2771 -111.61
rradius 113.059
rwrist -79.4772
rhand 9.2606 -25.3221
rfingers 7.12502
rthumb 34.4247 -52.0105
lclavicle 1.513e-013 1.51076e-014
lhumerus 7.99019 11.1601 81.0313
lradius 87.5922
lwrist -28.0661
lhand -36.75 46.3692
lfingers 7.12502
lthumb -9.83344 -283.88
rfemur -25.7074 -21.1051 17.4659
rtibia 77.1638
rfoot -33.6392 -23.594
rtoes -20.8616
lfemur -57.403 33.3425 -4.40625
ltibia 72.6725
lfoot -5.6179 0.956884
ltoes -12.3587
1506
root -2.42968 14.0345 -5.26206 11.2233 -50.383 -12.8748
lowerback 16.7193 5.10964 1.30588
upperback -3.20561 7.3269 1.58944
thorax -13.0203 3.38359 -0.990788
lowerneck -2.49268 8.29607 0.141129
upperneck 4.58146 10.9266 3.09236
head 1.67337 5.51789 1.16599
rclavicle 1.15767e-013 -1.74931e-014
rhumerus -57.5287 45.2472 -111.669
rradius 113.012
rwrist -79.5569
rhand 9.15515 -25.2978
rfingers 7.12502
rthumb 34.3246 -52.009
lclavicle 1.15767e-013 -1.74931e-014
lhumerus 8.12349 11.1238 81.0065
lradius 87.3864
lwrist -28.0778
lhand -36.7423 46.4617
lfingers 7.12502
lthumb -9.82606 -283.788
rfemur -25.9919 -20.9578 17.4822
rtibia 77.5565
rfoot -33.356 -23.8039
rtoes -20.6723
lfemur -57.3811 33.1569 -4.44686
ltibia 72.562
lfoot -5.41367 1.06552
ltoes -12.6166
1507
root -2.42554 14.0304 -5.28725 11.0444 -50.4143 -12.6699
lowerback 16.7805 5.12416 1.1963
upperback -3.17603 7.32094 1.57332
thorax -13.0344 3.3876 -0.950998
lowerneck -2.5096 8.28892 0.104898
upperneck 4.56151 10.919 3.09156
head 1.66806 5.51348 1.17139
rclavicle -1.63252e-014 -2.10712e-014
rhumerus -57.5494 45.2254 -111.718
rradius 112.96
rwrist -79.6365
rhand 9.03158 -25.2906
rfingers 7.12502
rthumb 34.2073 -52.0281
lclavicle -1.63252e-014 -2.10712e-014
lhumerus 8.25596 11.0888 80.9778
lradius 87.1802
lwrist -28.0937
lhand -36.7488 46.5704
lfingers 7.12502
lthumb -9.83232 -283.679
rfemur -26.3203 -20.7753 17.4967
rtibia 78.0204
rfoot -32.9813 -24.0055
rtoes -20.5423
lfemur -57.347 32.956 -4.48076
ltibia 72.432
lfoot -5.19567 1.17469
ltoes -12.8774
1508
root -2.42119 14.0262 -5.31572 10.8444 -50.4458 -12.4397
lowerback 16.8437 5.14016 1.07066
upperback -3.14459 7.31283 1.55323
thorax -13.049 3.3916 -0.906232
lowerneck -2.52049 8.28176 0.0699543
upperneck 4.5272 10.912 3.08418
head 1.6575 5.50914 1.17374
rclavicle 5.2181e-014 7.15625e-015
rhumerus -57.5546 45.2159 -111.755
rradius 112.905
rwrist -79.7068
rhand 8.8926 -25.3036
rfingers 7.12502
rthumb 34.0753 -52.0706
lclavicle 5.2181e-014 7.15625e-015
lhumerus 8.38439 11.0574 80.9418
lradius 86.9822
lwrist -28.0943
lhand -36.7674 46.6894
lfingers 7.12502
lthumb -9.85028 -283.561
rfemur -26.6952 -20.5508 17.4975
rtibia 78.5641
rfoot -32.511 -24.1731
rtoes -20.4922
lfemur -57.2997 32.7292 -4.51477
ltibia 72.2778
lfoot -4.96195 1.29166
ltoes -13.1463
1509
root -2.41676 14.0219 -5.3479 10.614 -50.4723 -12.172
lowerback 16.9095 5.15625 0.923729
upperback -3.11157 7.29924 1.52638
thorax -13.0651 3.39429 -0.85581
lowerneck -2.52234 8.27459 0.0379041
upperneck 4.47489 10.9055 3.06967
head 1.6401 5.50487 1.17232
rclavicle 1.97542e-014 -5.725e-014
rhumerus -57.5425 45.2188 -111.781
rradius 112.845
rwrist -79.7561
rhand 8.74207 -25.3399
rfingers 7.12502
rthumb 33.9323 -52.1387
lclavicle 1.97542e-014 -5.725e-014
lhumerus 8.50651 11.0284 80.8956
lradius 86.7986
lwrist -28.0585
lhand -36.7926 46.8114
lfingers 7.12502
lthumb -9.87456 -283.44
rfemur -27.117 -20.2777 17.4722
rtibia 79.1915
rfoot -31.9463 -24.2808
rtoes -20.5326
lfemur -57.2388 32.465 -4.55653
ltibia 72.094
lfoot -4.70933 1.42382
ltoes -13.4242
1510
root -2.41241 14.0177 -5.38428 10.3454 -50.4865 -11.8575
lowerback 16.9797 5.17092 0.752669
upperback -3.07742 7.27724 1.49055
thorax -13.0843 3.39435 -0.79997
lowerneck -2.51466 8.26726 0.00866815
upperneck 4.40492 10.8994 3.04977
head 1.61582 5.50055 1.16766
rclavicle -8.08557e-014 -1.70955e-014
rhumerus -57.5123 45.2305 -111.792
rradius 112.779
rwrist -79.7701
rhand 8.5867 -25.4035
rfingers 7.12502
rthumb 33.7847 -52.2348
lclavicle -8.08557e-014 -1.70955e-014
lhumerus 8.62002 10.9993 80.8366
lradius 86.6322
lwrist -27.9667
lhand -36.8189 46.9256
lfingers 7.12502
lthumb -9.8999 -283.327
rfemur -27.5831 -19.9501 17.4118
rtibia 79.9011
rfoot -31.2932 -24.3067
rtoes -20.6619
lfemur -57.165 32.1525 -4.6122
ltibia 71.8754
lfoot -4.4335 1.57723
ltoes -13.7051
1511
root -2.40831 14.0137 -5.42531 10.0345 -50.4814 -11.4926
lowerback 17.0564 5.18356 0.558332
upperback -3.04272 7.24595 1.44423
thorax -13.1081 3.3912 -0.740799
lowerneck -2.49844 8.25835 -0.0192761
upperneck 4.3197 10.8916 3.02734
head 1.5854 5.49524 1.16098
rclavicle 1.70582e-013 1.98785e-015
rhumerus -57.4615 45.2425 -111.786
rradius 112.707
rwrist -79.7329
rhand 8.43304 -25.4932
rfingers 7.12502
rthumb 33.6387 -52.3565
lclavicle 1.70582e-013 1.98785e-015
lhumerus 8.72253 10.965 80.7632
lradius 86.4837
lwrist -27.8017
lhand -36.8383 47.0203
lfingers 7.12502
lthumb -9.91861 -283.233
rfemur -28.0893 -19.5618 17.3123
rtibia 80.6854
rfoot -30.565 -24.2333
rtoes -20.8593
lfemur -57.0796 31.7839 -4.68456
ltibia 71.6176
lfoot -4.12849 1.75507
ltoes -13.9824
1512
root -2.40468 14.0099 -5.47144 9.68336 -50.4498 -11.0815
lowerback 17.1424 5.1938 0.345569
upperback -3.008 7.20591 1.38762
thorax -13.1381 3.38465 -0.681105
lowerneck -2.47503 8.24595 -0.048139
upperneck 4.22225 10.8795 3.00468
head 1.54988 5.48766 1.15348
rclavicle -8.76392e-014 -4.96962e-014
rhumerus -57.386 45.2447 -111.757
rradius 112.624
rwrist -79.6296
rhand 8.28658 -25.601
rfingers 7.12502
rthumb 33.4995 -52.4944
lclavicle -8.76392e-014 -4.96962e-014
lhumerus 8.8106 10.9198 80.674
lradius 86.3528
lwrist -27.5447
lhand -36.8409 47.0785
lfingers 7.12502
lthumb -9.92114 -283.175
rfemur -28.6294 -19.1057 17.177
rtibia 81.5313
rfoot -29.7812 -24.0493
rtoes -21.0912
lfemur -56.9842 31.3556 -4.77067
ltibia 71.3177
lfoot -3.78801 1.95632
ltoes -14.2483
